<?xml version="1.0" encoding="UTF-8"?>
<svg version="1.1" xmlns="http://www.w3.org/2000/svg" width="512" height="512">
<path d="M0 0 C1.17336914 0.00249756 2.34673828 0.00499512 3.55566406 0.00756836 C11.64891524 0.13308404 18.78036218 1.12814452 26.453125 3.66015625 C31.17450613 4.79488432 34.87696773 3.89948611 39.53491211 2.7109375 C47.63848246 0.68029325 55.15278347 -0.07396634 63.5 0 C65.3413855 0.01353516 65.3413855 0.01353516 67.2199707 0.02734375 C88.83586834 0.43877581 107.43834564 8.3245981 123.6875 22.4375 C124.43386719 23.08332031 125.18023437 23.72914062 125.94921875 24.39453125 C142.62246572 39.95404463 151.92972459 62.85619761 152.84918213 85.40208435 C152.90613921 89.51872732 152.86354062 93.63352617 152.8125 97.75 C152.80243517 99.18423844 152.7933156 100.61848383 152.78515625 102.05273438 C152.76345449 105.51447115 152.72912455 108.97593852 152.6875 112.4375 C153.47597321 112.42861755 154.26444641 112.41973511 155.07681274 112.4105835 C162.52127813 112.33030852 169.96553253 112.26947051 177.41031837 112.23025131 C181.23743842 112.20941011 185.06419969 112.181157 188.89111328 112.13574219 C192.5869739 112.09215899 196.28249026 112.06833682 199.9785881 112.05799103 C201.38597403 112.05062187 202.79334193 112.03623137 204.2005806 112.01457977 C206.17731471 111.98538608 208.15439804 111.98386475 210.13134766 111.98339844 C211.25497711 111.97451599 212.37860657 111.96563354 213.5362854 111.95648193 C217.43585718 112.5517332 219.61633693 114.01017708 222.6875 116.4375 C223.83374872 118.72999744 223.8240058 120.03860948 223.84571838 122.58828735 C223.86040161 123.89239815 223.86040161 123.89239815 223.87538147 125.22285461 C223.88113693 126.17879013 223.8868924 127.13472565 223.89282227 128.11962891 C223.90272186 129.12453873 223.91262146 130.12944855 223.92282104 131.16481018 C223.95449582 134.49787004 223.9792171 137.83094417 224.00390625 141.1640625 C224.02447061 143.47049335 224.04546694 145.77692038 224.06687927 148.08334351 C224.12215339 154.16276975 224.1715391 160.24223031 224.21972656 166.32171631 C224.26990264 172.52180038 224.325609 178.72183444 224.38085938 184.921875 C224.48850625 197.09370731 224.58993669 209.26558298 224.6875 221.4375 C225.56865479 221.76363281 226.44980957 222.08976563 227.35766602 222.42578125 C228.51967529 222.86277344 229.68168457 223.29976562 230.87890625 223.75 C232.60282593 224.39388672 232.60282593 224.39388672 234.36157227 225.05078125 C238.93324228 226.9569022 242.75591932 229.45878715 246.6875 232.4375 C248.234375 233.55125 248.234375 233.55125 249.8125 234.6875 C258.07896539 242.59455385 264.19117081 253.1584989 265.24658203 264.640625 C265.37300583 265.98882324 265.37300583 265.98882324 265.50198364 267.36425781 C265.59381424 268.3905127 265.59381424 268.3905127 265.6875 269.4375 C266.46344513 269.42639694 267.23939026 269.41529388 268.03884888 269.40385437 C275.36556363 269.30350448 282.69194335 269.22746101 290.01916695 269.17843914 C293.7858636 269.15238858 297.55199057 269.117076 301.31835938 269.06030273 C304.95588624 269.00581722 308.59286655 268.97604532 312.23077011 268.96311378 C313.61585973 268.95390322 315.00092076 268.93591641 316.38577652 268.90884972 C328.59613549 268.67977802 328.59613549 268.67977802 332.52294922 271.78051758 C335.97505737 276.01797449 335.83421664 279.69603272 335.82794189 284.91719055 C335.83239858 286.070031 335.83239858 286.070031 335.8369453 287.24616116 C335.84563904 289.82988987 335.84714116 292.41357227 335.84863281 294.99731445 C335.85326081 296.8469401 335.85828544 298.69656478 335.86367798 300.54618835 C335.87681281 305.57984768 335.88324999 310.61349365 335.88768864 315.64716744 C335.8906199 318.79530469 335.89472499 321.9434383 335.89919281 325.09157372 C335.91287562 334.95018602 335.9225363 344.80879 335.9263947 354.66741115 C335.93086618 366.02946541 335.94836838 377.39139882 335.9773953 388.75341636 C335.99906933 397.54428358 336.00910216 406.33511696 336.01043582 415.1260106 C336.0114805 420.37130419 336.01731539 425.61648431 336.03525543 430.86174965 C336.05183334 435.80542572 336.0538448 440.74890424 336.04511642 445.69259834 C336.04435101 447.49762758 336.04862262 449.30266786 336.05857468 451.10766983 C336.153506 469.41399706 334.07520738 485.43979426 320.94140625 499.37109375 C308.50073929 510.77683521 294.67639608 513.04044044 278.4495697 512.94543457 C276.72288077 512.95005039 274.99619578 512.95640786 273.26951891 512.96434355 C268.55190177 512.98096628 263.83461032 512.97282277 259.11699235 512.96039867 C254.01876382 512.95132157 248.92058999 512.96533103 243.82237244 512.97631836 C233.8459799 512.99407942 223.86970793 512.99027445 213.89331072 512.9786678 C205.78393643 512.96962476 197.67459586 512.96841324 189.56521797 512.97276306 C188.4099188 512.97337599 187.25461964 512.97398893 186.0643114 512.97462043 C183.71716685 512.97589936 181.3700223 512.97719622 179.02287776 512.9785108 C157.02816019 512.9899094 135.03350937 512.97681391 113.03880275 512.95530933 C94.17484225 512.93743665 75.31098021 512.94054529 56.44702148 512.95898438 C34.52806607 512.98039969 12.6091691 512.98881332 -9.30979532 512.97653532 C-11.64787478 512.97526115 -13.98595426 512.97400367 -16.32403374 512.97276306 C-18.04949935 512.97183741 -18.04949935 512.97183741 -19.80982285 512.97089306 C-27.90801512 512.96744233 -36.00617025 512.97326249 -44.10435677 512.98268127 C-53.97532374 512.99390985 -63.84616351 512.99084296 -73.71711595 512.9695583 C-78.7514207 512.9590599 -83.7855135 512.95490553 -88.81981659 512.96815491 C-93.43193222 512.98010944 -98.04364023 512.97346587 -102.65571909 512.9522447 C-104.32041317 512.94779163 -105.98514196 512.95001567 -107.64981354 512.95974785 C-122.73568331 513.04115106 -135.18104494 509.80670413 -146.60546875 499.3359375 C-158.51211722 486.69210442 -160.77704332 471.49543635 -160.70018005 454.66517639 C-160.70436276 453.21867332 -160.70984537 451.77217353 -160.71649987 450.32567972 C-160.73084896 446.38741904 -160.72674322 442.44936951 -160.71933305 438.51109779 C-160.71457775 434.25007513 -160.72713153 429.98909661 -160.73735046 425.72808838 C-160.7544937 417.39719711 -160.75538836 409.06638141 -160.75013756 400.7354771 C-160.74608876 393.96571249 -160.74754782 387.19597014 -160.75288582 380.42620659 C-160.75363424 379.46109922 -160.75438266 378.49599186 -160.75515376 377.50163881 C-160.75668528 375.54086014 -160.75822363 373.58008147 -160.75976873 371.6193028 C-160.77347581 353.26009903 -160.76806713 334.90093795 -160.75658352 316.54173516 C-160.74663767 299.74330374 -160.75961832 282.94498225 -160.78351771 266.14656777 C-160.80788897 248.88630637 -160.81752239 231.62609623 -160.81086498 214.36581796 C-160.80737035 204.67981575 -160.80962179 194.99389822 -160.82711601 185.30790901 C-160.84181264 177.06908341 -160.84250597 168.83040226 -160.8250451 160.59157956 C-160.81651462 156.38822729 -160.81443565 152.18513336 -160.82969666 147.98179436 C-160.8434914 144.13480016 -160.83884854 140.28828694 -160.81945742 136.44132095 C-160.81568124 135.04928502 -160.81866585 133.65721103 -160.82906907 132.26520885 C-160.91882444 119.33718447 -160.91882444 119.33718447 -156.3125 114.4375 C-153.03742806 112.03420321 -149.96601034 112.19476964 -145.98339844 112.21044922 C-144.06185944 112.21067581 -144.06185944 112.21067581 -142.10150146 112.21090698 C-140.70829106 112.22111949 -139.31508224 112.23155147 -137.921875 112.2421875 C-136.49269814 112.24591936 -135.06351872 112.24876552 -133.63433838 112.25076294 C-129.87944429 112.25838581 -126.12470581 112.27802261 -122.36987305 112.3001709 C-118.53566594 112.32065841 -114.70143361 112.32977086 -110.8671875 112.33984375 C-103.34888752 112.36126988 -95.8307156 112.39538944 -88.3125 112.4375 C-88.32821045 111.45056152 -88.3439209 110.46362305 -88.36010742 109.44677734 C-88.41522157 105.71558088 -88.44913982 101.98441872 -88.47729492 98.25292969 C-88.49219902 96.65097973 -88.51252947 95.0490692 -88.53881836 93.44726562 C-88.96933623 66.50191178 -80.29632476 44.15258155 -61.75 24.4375 C-44.97739294 8.12652432 -23.33817796 -0.20060988 0 0 Z M-38.3125 32.4375 C-53.60778673 44.81207871 -63.97434777 59.72591328 -67.3125 79.4375 C-67.86946194 85.24134257 -67.69616395 91.05263382 -67.5625 96.875 C-67.48 102.010625 -67.3975 107.14625 -67.3125 112.4375 C-53.4525 112.4375 -39.5925 112.4375 -25.3125 112.4375 C-25.209375 107.4875 -25.10625 102.5375 -25 97.4375 C-24.25447307 70.96797168 -18.85443784 49.02712805 -1.3125 28.4375 C-0.40177734 27.36048828 -0.40177734 27.36048828 0.52734375 26.26171875 C1.90416749 24.6451657 3.29416087 23.03984 4.6875 21.4375 C-9.14595261 17.78882844 -26.94115454 24.75072458 -38.3125 32.4375 Z M58.6875 22.4375 C60.1415625 23.55125 60.1415625 23.55125 61.625 24.6875 C75.8637275 37.03155811 85.07589266 57.00640231 87.6875 75.4375 C87.87253881 78.32932473 87.94177803 81.22040231 88.00390625 84.1171875 C88.02255737 84.83849854 88.0412085 85.55980957 88.0604248 86.30297852 C88.12822785 88.97270588 88.18869053 91.64261562 88.25 94.3125 C88.394375 100.29375 88.53875 106.275 88.6875 112.4375 C102.8775 112.4375 117.0675 112.4375 131.6875 112.4375 C131.72875 107.9 131.77 103.3625 131.8125 98.6875 C131.83070801 97.28274414 131.84891602 95.87798828 131.86767578 94.43066406 C131.96079893 73.03637085 125.81515632 55.46820742 111.0625 39.71875 C98.34662271 27.50481524 82.5422592 21.95628815 65.28125 20.35546875 C62.52204404 20.44273279 61.02073166 21.01224764 58.6875 22.4375 Z M23.75 33.4375 C23.22639893 33.85467285 22.70279785 34.2718457 22.16333008 34.70166016 C6.81167139 47.10939296 -1.64231179 62.90296517 -4.3125 82.4375 C-4.3125 92.3375 -4.3125 102.2375 -4.3125 112.4375 C19.4475 112.4375 43.2075 112.4375 67.6875 112.4375 C67.96076313 71.60123189 67.96076313 71.60123189 47.6875 39.4375 C36.61141015 29.27589742 36.61141015 29.27589742 23.75 33.4375 Z M-139.3125 133.4375 C-139.40295295 175.92726261 -139.47455329 218.41700209 -139.51676132 260.90684192 C-139.52176406 265.92479256 -139.52694136 270.94274301 -139.53222656 275.96069336 C-139.5332758 276.95966389 -139.53432505 277.95863443 -139.53540608 278.9878768 C-139.55280448 295.15649176 -139.58433908 311.32504974 -139.62111118 327.49363092 C-139.6585363 344.08791259 -139.68073918 360.68216444 -139.68885398 377.27648658 C-139.69433849 387.51352511 -139.71165191 397.7504026 -139.74416587 407.98739155 C-139.76533313 415.01023384 -139.77169503 422.03299305 -139.76650551 429.05586491 C-139.76394717 433.10584596 -139.76782914 437.15554588 -139.7893219 441.20547676 C-139.80888353 444.91876628 -139.80970841 448.6315874 -139.79609558 452.34489914 C-139.79362313 454.31316549 -139.81078876 456.28142689 -139.82882524 458.24961215 C-139.76962909 467.08599855 -138.51377899 475.56196186 -133.0625 482.8125 C-122.52595027 492.87011565 -112.98406461 492.4375 -98.3125 492.4375 C-98.3125 373.9675 -98.3125 255.4975 -98.3125 133.4375 C-111.8425 133.4375 -125.3725 133.4375 -139.3125 133.4375 Z M-77.3125 133.4375 C-77.3125 251.9075 -77.3125 370.3775 -77.3125 492.4375 C-19.2325 492.4375 38.8475 492.4375 98.6875 492.4375 C97.24586567 488.82068315 97.24586567 488.82068315 95.6875 485.25390625 C90.03767735 472.51973567 90.39079884 458.72508946 90.4128418 445.06860352 C90.40848452 443.26510916 90.40329802 441.46161665 90.39735413 439.65812683 C90.38407136 434.80324759 90.3833727 429.94844668 90.38591743 425.09355283 C90.3869931 421.02999217 90.38208931 416.96644698 90.377312 412.90288967 C90.36625693 403.31944376 90.36575873 393.73603707 90.37182617 384.15258789 C90.37788187 374.27762044 90.36550539 364.4027949 90.3442561 354.52785164 C90.3266412 346.02815806 90.32063803 337.52850968 90.32389385 329.02879852 C90.32570484 323.96107513 90.3230875 318.89345332 90.30917931 313.82574654 C90.29660514 309.06742649 90.29854115 304.30932868 90.31159019 299.55101204 C90.31395529 297.80754013 90.31122368 296.06405257 90.30296707 294.3205986 C90.2924935 291.93695031 90.30060425 289.55404724 90.3132782 287.17042542 C90.30590391 286.48443049 90.29852963 285.79843557 90.29093188 285.09165293 C90.34637701 280.11959892 91.39426023 276.76693044 93.6875 272.4375 C97.19102149 270.10181901 98.66367639 270.16832423 102.8112793 270.11865234 C104.07236008 270.09878265 105.33344086 270.07891296 106.63273621 270.05844116 C108.00906194 270.04656478 109.38538953 270.03490192 110.76171875 270.0234375 C112.16991819 270.00472711 113.5781064 269.98515379 114.98628235 269.9647522 C118.69008773 269.91341107 122.39392946 269.87379615 126.09790039 269.83660889 C129.8785096 269.79658153 133.65896732 269.74548344 137.43945312 269.6953125 C144.85536484 269.59852983 152.2713498 269.51413274 159.6875 269.4375 C159.94289551 268.35283447 160.19829102 267.26816895 160.46142578 266.15063477 C160.80987364 264.70580803 161.15868877 263.26106982 161.5078125 261.81640625 C161.75785034 260.74791443 161.75785034 260.74791443 162.01293945 259.65783691 C165.46729444 245.48685356 173.52080802 236.02512595 185.6875 228.4375 C191.16337431 225.25763236 196.60155925 223.46614692 202.6875 221.4375 C202.6875 192.3975 202.6875 163.3575 202.6875 133.4375 C186.1875 133.4375 169.6875 133.4375 152.6875 133.4375 C152.65011719 137.19382813 152.61273438 140.95015625 152.57421875 144.8203125 C152.52798828 148.46425146 152.47675997 152.10808831 152.42504883 155.75195312 C152.39182486 158.28151225 152.36378511 160.81114505 152.34106445 163.34082031 C152.30747296 166.98013667 152.25515246 170.61877934 152.19921875 174.2578125 C152.19282883 175.38615509 152.1864389 176.51449768 152.17985535 177.67703247 C152.07537652 183.27540699 151.98746465 187.67037865 148.6875 192.4375 C146.41501762 193.57374119 144.90447236 193.70196843 142.375 193.8125 C141.61574219 193.86148438 140.85648438 193.91046875 140.07421875 193.9609375 C137.6875 193.4375 137.6875 193.4375 132.6875 188.4375 C132.3575 170.2875 132.0275 152.1375 131.6875 133.4375 C86.8075 133.4375 41.9275 133.4375 -4.3125 133.4375 C-4.6425 151.5875 -4.9725 169.7375 -5.3125 188.4375 C-10.3125 193.4375 -10.3125 193.4375 -12.62890625 194.06640625 C-18.7138277 193.88650422 -18.7138277 193.88650422 -21.8125 191.5625 C-24.17076095 188.22163032 -24.45171754 186.31413705 -24.51782227 182.25341797 C-24.5477401 180.63196365 -24.5477401 180.63196365 -24.57826233 178.97775269 C-24.59497482 177.80689117 -24.61168732 176.63602966 -24.62890625 175.4296875 C-24.64968735 174.23393097 -24.67046844 173.03817444 -24.69187927 171.80618286 C-24.75742289 167.97501536 -24.81628218 164.14377762 -24.875 160.3125 C-24.91818063 157.72004473 -24.96179477 155.12759664 -25.00585938 152.53515625 C-25.11392733 146.16934186 -25.21296544 139.8034765 -25.3125 133.4375 C-42.4725 133.4375 -59.6325 133.4375 -77.3125 133.4375 Z M189.6875 250.4375 C183.96806535 256.63781734 182.5852599 260.89758045 180.6875 269.4375 C201.8075 269.4375 222.9275 269.4375 244.6875 269.4375 C242.21509238 258.31166572 237.93755359 252.05471101 228.6875 245.4375 C215.52053086 238.05642695 200.86257274 241.30192017 189.6875 250.4375 Z M110.6875 290.4375 C110.64231412 312.82119279 110.60548808 335.20484852 110.58387566 357.58857536 C110.57357291 367.98224396 110.55953174 378.37588216 110.53662109 388.76953125 C110.51665654 397.83099232 110.50377628 406.89243136 110.49932301 415.95391381 C110.49672083 420.74973854 110.49062543 425.54550028 110.47603989 430.34130478 C110.46240754 434.860551 110.45828875 439.37970863 110.46128464 443.89897346 C110.460737 445.55248688 110.45679337 447.20600342 110.44908905 448.85949898 C110.27646955 467.64232851 110.27646955 467.64232851 119.546875 483.3828125 C129.74252427 492.82761938 140.46075174 492.58834025 153.72583008 492.58276367 C155.14904366 492.58575922 156.57225643 492.58916266 157.99546814 492.59294128 C161.84684628 492.60174532 165.69820217 492.60411788 169.5495894 492.60475707 C171.96000475 492.60546963 174.37041451 492.60760785 176.78082848 492.61025429 C185.20195243 492.61949589 193.6230606 492.62359067 202.04418945 492.62280273 C209.87455858 492.6222023 217.70485875 492.63275046 225.53521043 492.6485464 C232.27430888 492.66165302 239.01338486 492.66698532 245.75249594 492.66634732 C249.77020584 492.66609325 253.78785441 492.6688942 257.80555153 492.67952538 C261.58702803 492.68925905 265.36838521 492.68924971 269.1498661 492.68200874 C271.18515226 492.68047699 273.22043854 492.68877273 275.25570679 492.69744873 C286.6290107 492.65873003 296.59998244 491.83537862 305.6875 484.4375 C312.65102011 476.74030032 314.94265851 469.04845828 314.92800903 458.79382324 C314.92971788 458.06828263 314.93142673 457.34274201 314.93318737 456.59521532 C314.93645605 454.1877222 314.92552235 451.78051389 314.91455078 449.37304688 C314.9139861 447.63789883 314.91430434 445.90275031 314.91543579 444.16760254 C314.91600808 439.47396887 314.90427386 434.78043806 314.89028788 430.08682823 C314.87775982 425.17544455 314.87660838 420.26405833 314.87423706 415.35266113 C314.86802839 406.05975507 314.85162586 396.76689624 314.83153808 387.47401094 C314.80916001 376.8912039 314.79818085 366.30839456 314.78814721 355.72556973 C314.76725909 333.96284763 314.7305905 312.20019024 314.6875 290.4375 C298.5175 290.4375 282.3475 290.4375 265.6875 290.4375 C265.51708147 304.73759438 265.51708147 304.73759438 265.38964844 319.03808594 C265.36028017 320.83270843 265.32945464 322.62730793 265.296875 324.421875 C265.29574707 325.3514502 265.29461914 326.28102539 265.29345703 327.23876953 C265.14775816 333.80232584 265.14775816 333.80232584 262.80395508 337.03686523 C260.20259761 338.75840034 258.72104473 338.88542277 255.625 338.75 C254.76777344 338.72550781 253.91054688 338.70101562 253.02734375 338.67578125 C250.6875 338.4375 250.6875 338.4375 247.6875 337.4375 C245.75693759 331.65311629 245.35937601 326.1857979 245.2734375 320.125 C245.25579346 319.36638672 245.23814941 318.60777344 245.2199707 317.82617188 C245.15756953 315.03015153 245.1109257 312.2337973 245.0625 309.4375 C244.93875 303.1675 244.815 296.8975 244.6875 290.4375 C223.2375 290.4375 201.7875 290.4375 179.6875 290.4375 C179.51708147 304.73759438 179.51708147 304.73759438 179.38964844 319.03808594 C179.36028017 320.83270843 179.32945464 322.62730793 179.296875 324.421875 C179.29574707 325.3514502 179.29461914 326.28102539 179.29345703 327.23876953 C179.14775816 333.80232584 179.14775816 333.80232584 176.80395508 337.03686523 C174.20259761 338.75840034 172.72104473 338.88542277 169.625 338.75 C168.76777344 338.72550781 167.91054688 338.70101562 167.02734375 338.67578125 C164.6875 338.4375 164.6875 338.4375 161.6875 337.4375 C159.56086152 331.9948609 159.35293261 326.79718283 159.2734375 321.00390625 C159.25579346 320.22462769 159.23814941 319.44534912 159.2199707 318.64245605 C159.15742479 315.76183815 159.11087979 312.88089065 159.0625 310 C158.93875 303.544375 158.815 297.08875 158.6875 290.4375 C142.8475 290.4375 127.0075 290.4375 110.6875 290.4375 Z " fill="#FFFFFF" transform="translate(168.3125,-0.4375)"/>
</svg>
