<svg xmlns="http://www.w3.org/2000/svg" width="430" height="430" style="width:100%;height:100%;transform:translate3d(0,0,0);content-visibility:visible" viewBox="0 0 430 430"><defs><clipPath id="i"><path d="M0 0h430v430H0z"/></clipPath><clipPath id="o"><path d="M0 0h430v430H0z"/></clipPath><clipPath id="p"><path d="M0 0h430v430H0z"/></clipPath><clipPath id="j"><path d="M0 0h430v430H0z"/></clipPath><clipPath id="k"><path d="M0 0h430v430H0z"/></clipPath><filter id="a" width="100%" height="100%" x="0%" y="0%" filterUnits="objectBoundingBox"><feComponentTransfer in="SourceGraphic"><feFuncA tableValues="1.0 0.0" type="table"/></feComponentTransfer></filter><filter id="c" width="100%" height="100%" x="0%" y="0%" filterUnits="objectBoundingBox"><feComponentTransfer in="SourceGraphic"><feFuncA tableValues="1.0 0.0" type="table"/></feComponentTransfer></filter><filter id="e" width="100%" height="100%" x="0%" y="0%" filterUnits="objectBoundingBox"><feComponentTransfer in="SourceGraphic"><feFuncA tableValues="1.0 0.0" type="table"/></feComponentTransfer></filter><filter id="g" width="100%" height="100%" x="0%" y="0%" filterUnits="objectBoundingBox"><feComponentTransfer in="SourceGraphic"><feFuncA tableValues="1.0 0.0" type="table"/></feComponentTransfer></filter><path id="d" style="display:none"/><path id="b" style="display:none"/><path id="h" fill="#FFF" d="M310 220H130v115c0 11.046 8.954 20 20 20h140c11.046 0 20-8.954 20-20z" style="display:block"/><path id="f" fill="#FFF" d="M100-102.5h-200v185c0 11.046 8.954 20 20 20H80c11.046 0 20-8.954 20-20z" style="display:block" transform="translate(297 252.5)"/><mask id="r" mask-type="alpha"><g filter="url(#a)"><path fill="#fff" d="M0 0h430v430H0z" opacity="0"/><use xmlns:ns1="http://www.w3.org/1999/xlink" ns1:href="#b"/></g></mask><mask id="q" mask-type="alpha"><g filter="url(#c)"><path fill="#fff" d="M0 0h430v430H0z" opacity="0"/><use xmlns:ns2="http://www.w3.org/1999/xlink" ns2:href="#d"/></g></mask><mask id="n" mask-type="alpha"><g filter="url(#e)"><path fill="#fff" d="M0 0h430v430H0z" opacity="0"/><use xmlns:ns3="http://www.w3.org/1999/xlink" ns3:href="#f"/></g></mask><mask id="l" mask-type="alpha"><g filter="url(#g)"><path fill="#fff" d="M0 0h430v430H0z" opacity="0"/><use xmlns:ns4="http://www.w3.org/1999/xlink" ns4:href="#h"/></g></mask></defs><g fill="none" clip-path="url(#i)"><g stroke-linecap="round" stroke-linejoin="round" stroke-width="12" clip-path="url(#j)" style="display:block"><g clip-path="url(#k)" mask="url(#l)" style="display:block"><g stroke="#121331" mask="url(#n)" style="display:block"><path d="M230 90H50L38.58 211.055 27.064 333.122C25.957 344.858 35.188 355 46.976 355h186.048c11.788 0 21.019-10.142 19.912-21.878l-11.355-120.365z" class="primary"/><path d="M185 120V75c0-24.853-20.147-45-45-45S95 50.147 95 75v45" class="primary"/></g><g stroke="#08A88A" style="display:block"><path d="M397 150H197v185c0 11.046 8.954 20 20 20h160c11.046 0 20-8.954 20-20z" class="secondary"/><path d="M342 175v-35c0-24.853-20.147-45-45-45s-45 20.147-45 45v35" class="secondary"/></g></g><g stroke="#121331" style="display:block"><path d="M310 220H130v115c0 11.046 8.954 20 20 20h140c11.046 0 20-8.954 20-20z" class="primary"/><path d="M185 250v20c0 19.33 15.67 35 35 35s35-15.67 35-35v-20" class="primary"/></g></g><g clip-path="url(#o)" style="display:none"><g clip-path="url(#p)" mask="url(#q)" style="display:none"><g mask="url(#r)" style="display:none"><path class="primary"/><path class="primary"/></g><g style="display:none"><path class="secondary"/><path class="secondary"/></g></g><g style="display:none"><path class="primary"/><path class="primary"/></g></g></g></svg>